# xmcd
#
# Track frame offsets:
#	150
#	15457
#	26967
#	62088
#	82540
#	95495
#	114810
#	124827
#	149702
#	171168
#	188090
#	214930
#	247345
#	276593
#
# Disc length: 4000 seconds
#
# Revision: 0
# Processed by: cddbd v1.5.2PL0 Copyright (c) Steve Scherf et al.
# Submitted via: audiograbber 1.83.01
#
DISCID=cc0f9e0e
DTITLE=Pappo - Pappo Sigue Vivo
DYEAR=1994
DGENRE=Rock
TTITLE0=Llegará La Paz
TTITLE1=El Hombre Suburbano
TTITLE2=El Hombre De La valija
TTITLE3=El Gato De La Calle Negra
TTITLE4=Triple Seis
TTITLE5=Malas Compañías
TTITLE6=Tomé Demasiado
TTITLE7=Desconfío
TTITLE8=Una Casa Con Diez Pinos
TTITLE9=Pájaro Metálico
TTITLE10=El Viejo
TTITLE11=T-Bone Steak
TTITLE12=Blues Got Soul
TTITLE13=Duelo Pappo Vs. Edgar Winter
EXTD=ID3G: 0
EXTT0=
EXTT1=
EXTT2=
EXTT3=
EXTT4=
EXTT5=
EXTT6=
EXTT7=
EXTT8=
EXTT9=
EXTT10=
EXTT11=
EXTT12=
EXTT13=
PLAYORDER=
